<?xml version="1.0" encoding="UTF-8" standalone="no"?>
<!DOCTYPE svg PUBLIC "-//W3C//DTD SVG 1.1//EN"
 "http://www.w3.org/Graphics/SVG/1.1/DTD/svg11.dtd">
<!-- Generated by graphviz version 9.0.0 (20230911.1827)
 -->
<!-- Pages: 1 -->
<svg width="992pt" height="332pt"
 viewBox="0.00 0.00 992.40 332.00" xmlns="http://www.w3.org/2000/svg" xmlns:xlink="http://www.w3.org/1999/xlink">
<g id="graph0" class="graph" transform="scale(1 1) rotate(0) translate(4 328)">
<polygon fill="white" stroke="none" points="-4,4 -4,-328 988.4,-328 988.4,4 -4,4"/>
<!-- [root] aws_s3_bucket.s3 (expand) -->
<g id="node1" class="node">
<title>[root] aws_s3_bucket.s3 (expand)</title>
<polygon fill="none" stroke="black" points="325.17,-180 210.92,-180 210.92,-144 325.17,-144 325.17,-180"/>
<text text-anchor="middle" x="268.05" y="-156.95" font-family="Times,serif" font-size="14.00">aws_s3_bucket.s3</text>
</g>
<!-- [root] provider[&quot;registry.opentofu.org/hashicorp/aws&quot;] -->
<g id="node2" class="node">
<title>[root] provider[&quot;registry.opentofu.org/hashicorp/aws&quot;]</title>
<polygon fill="none" stroke="black" points="268.05,-108 0,-90 268.05,-72 536.1,-90 268.05,-108"/>
<text text-anchor="middle" x="268.05" y="-84.95" font-family="Times,serif" font-size="14.00">provider[&quot;registry.opentofu.org/hashicorp/aws&quot;]</text>
</g>
<!-- [root] aws_s3_bucket.s3 (expand)&#45;&gt;[root] provider[&quot;registry.opentofu.org/hashicorp/aws&quot;] -->
<g id="edge1" class="edge">
<title>[root] aws_s3_bucket.s3 (expand)&#45;&gt;[root] provider[&quot;registry.opentofu.org/hashicorp/aws&quot;]</title>
<path fill="none" stroke="black" d="M268.05,-143.7C268.05,-136.41 268.05,-127.73 268.05,-119.54"/>
<polygon fill="black" stroke="black" points="271.55,-119.62 268.05,-109.62 264.55,-119.62 271.55,-119.62"/>
</g>
<!-- [root] local.region (expand) -->
<g id="node4" class="node">
<title>[root] local.region (expand)</title>
<ellipse fill="none" stroke="black" cx="268.05" cy="-18" rx="113.79" ry="18"/>
<text text-anchor="middle" x="268.05" y="-12.95" font-family="Times,serif" font-size="14.00">[root] local.region (expand)</text>
</g>
<!-- [root] provider[&quot;registry.opentofu.org/hashicorp/aws&quot;]&#45;&gt;[root] local.region (expand) -->
<g id="edge3" class="edge">
<title>[root] provider[&quot;registry.opentofu.org/hashicorp/aws&quot;]&#45;&gt;[root] local.region (expand)</title>
<path fill="none" stroke="black" d="M268.05,-71.7C268.05,-64.41 268.05,-55.73 268.05,-47.54"/>
<polygon fill="black" stroke="black" points="271.55,-47.62 268.05,-37.62 264.55,-47.62 271.55,-47.62"/>
</g>
<!-- [root] provider[&quot;registry.opentofu.org/hashicorp/aws&quot;] (close) -->
<g id="node3" class="node">
<title>[root] provider[&quot;registry.opentofu.org/hashicorp/aws&quot;] (close)</title>
<ellipse fill="none" stroke="black" cx="268.05" cy="-234" rx="240.72" ry="18"/>
<text text-anchor="middle" x="268.05" y="-228.95" font-family="Times,serif" font-size="14.00">[root] provider[&quot;registry.opentofu.org/hashicorp/aws&quot;] (close)</text>
</g>
<!-- [root] provider[&quot;registry.opentofu.org/hashicorp/aws&quot;] (close)&#45;&gt;[root] aws_s3_bucket.s3 (expand) -->
<g id="edge2" class="edge">
<title>[root] provider[&quot;registry.opentofu.org/hashicorp/aws&quot;] (close)&#45;&gt;[root] aws_s3_bucket.s3 (expand)</title>
<path fill="none" stroke="black" d="M268.05,-215.7C268.05,-208.41 268.05,-199.73 268.05,-191.54"/>
<polygon fill="black" stroke="black" points="271.55,-191.62 268.05,-181.62 264.55,-191.62 271.55,-191.62"/>
</g>
<!-- [root] root -->
<g id="node5" class="node">
<title>[root] root</title>
<ellipse fill="none" stroke="black" cx="630.05" cy="-306" rx="49.3" ry="18"/>
<text text-anchor="middle" x="630.05" y="-300.95" font-family="Times,serif" font-size="14.00">[root] root</text>
</g>
<!-- [root] root&#45;&gt;[root] provider[&quot;registry.opentofu.org/hashicorp/aws&quot;] (close) -->
<g id="edge6" class="edge">
<title>[root] root&#45;&gt;[root] provider[&quot;registry.opentofu.org/hashicorp/aws&quot;] (close)</title>
<path fill="none" stroke="black" d="M587.1,-296.7C532.23,-286.09 435.7,-267.42 363.14,-253.39"/>
<polygon fill="black" stroke="black" points="364.13,-250.02 353.65,-251.55 362.81,-256.89 364.13,-250.02"/>
</g>
<!-- [root] local.env (expand) -->
<g id="node6" class="node">
<title>[root] local.env (expand)</title>
<ellipse fill="none" stroke="black" cx="630.05" cy="-234" rx="103.56" ry="18"/>
<text text-anchor="middle" x="630.05" y="-228.95" font-family="Times,serif" font-size="14.00">[root] local.env (expand)</text>
</g>
<!-- [root] root&#45;&gt;[root] local.env (expand) -->
<g id="edge4" class="edge">
<title>[root] root&#45;&gt;[root] local.env (expand)</title>
<path fill="none" stroke="black" d="M630.05,-287.7C630.05,-280.41 630.05,-271.73 630.05,-263.54"/>
<polygon fill="black" stroke="black" points="633.55,-263.62 630.05,-253.62 626.55,-263.62 633.55,-263.62"/>
</g>
<!-- [root] local.service (expand) -->
<g id="node7" class="node">
<title>[root] local.service (expand)</title>
<ellipse fill="none" stroke="black" cx="868.05" cy="-234" rx="116.35" ry="18"/>
<text text-anchor="middle" x="868.05" y="-228.95" font-family="Times,serif" font-size="14.00">[root] local.service (expand)</text>
</g>
<!-- [root] root&#45;&gt;[root] local.service (expand) -->
<g id="edge5" class="edge">
<title>[root] root&#45;&gt;[root] local.service (expand)</title>
<path fill="none" stroke="black" d="M667.5,-293.99C704.19,-283.2 760.8,-266.55 804.53,-253.68"/>
<polygon fill="black" stroke="black" points="805.29,-257.11 813.9,-250.93 803.32,-250.39 805.29,-257.11"/>
</g>
</g>
</svg>
